<svg preserveAspectRatio="none" overflow="visible" style="display: block;" width="144.059" height="79.0053" viewBox="0 0 144.059 79.0053" fill="none" xmlns="http://www.w3.org/2000/svg">
<g id="Group 71">
<g id="NAME">
<path id="o1_outer" d="M15.5042 58.4388C24.067 58.4388 31.0084 52.2964 31.0084 44.7194C31.0084 37.1424 24.067 31 15.5042 31C6.94148 31 0 37.1424 0 44.7194C0 52.2964 6.94148 58.4388 15.5042 58.4388Z" fill="url(#paint0_linear_0_85)"/>
<path id="o1_inner" d="M15.5045 51.006C19.4291 51.006 22.6106 48.1908 22.6106 44.718C22.6106 41.2452 19.4291 38.4299 15.5045 38.4299C11.5799 38.4299 8.39839 41.2452 8.39839 44.718C8.39839 48.1908 11.5799 51.006 15.5045 51.006Z" fill="#F8FBFF"/>
<path id="r_stem" d="M51.3585 38.0046C51.3585 34.295 47.9601 31.2878 43.7679 31.2878C39.5758 31.2878 36.1773 34.295 36.1773 38.0046V51.4382C36.1773 55.1477 39.5758 58.1549 43.7679 58.1549C47.9601 58.1549 51.3585 55.1477 51.3585 51.4382V38.0046Z" fill="url(#paint1_linear_0_85)"/>
<path id="r_bowl" d="M59.2709 31.2878H54.1028C48.8403 31.2878 44.5742 35.0628 44.5742 39.7195C44.5742 44.3762 48.8403 48.1512 54.1028 48.1512H59.2709C64.5334 48.1512 68.7995 44.3762 68.7995 39.7195C68.7995 35.0628 64.5334 31.2878 59.2709 31.2878Z" fill="url(#paint2_linear_0_85)"/>
<path id="r_counter" d="M54.7501 43.7203C57.2475 43.7203 59.2721 41.9287 59.2721 39.7188C59.2721 37.5088 57.2475 35.7173 54.7501 35.7173C52.2526 35.7173 50.228 37.5088 50.228 39.7188C50.228 41.9287 52.2526 43.7203 54.7501 43.7203Z" fill="#F8FBFF"/>
<path id="t_bar" d="M102.025 31.5612H81.1754C77.101 31.5612 73.798 34.3191 73.798 37.7211C73.798 41.123 77.101 43.8809 81.1754 43.8809H102.025C106.099 43.8809 109.402 41.123 109.402 37.7211C109.402 34.3191 106.099 31.5612 102.025 31.5612Z" fill="url(#paint3_linear_0_85)"/>
<path id="t_stem" d="M99.0442 46.1197C99.0442 42.4084 96.001 39.3999 92.247 39.3999C88.4931 39.3999 85.4499 42.4084 85.4499 46.1197V51.7195C85.4499 55.4308 88.4931 58.4393 92.247 58.4393C96.001 58.4393 99.0442 55.4308 99.0442 51.7195V46.1197Z" fill="url(#paint4_linear_0_85)"/>
<path id="o2_outer" d="M127.496 59C136.059 59 143 52.8576 143 45.2806C143 37.7036 136.059 31.5612 127.496 31.5612C118.933 31.5612 111.992 37.7036 111.992 45.2806C111.992 52.8576 118.933 59 127.496 59Z" fill="url(#paint5_linear_0_85)"/>
<path id="o2_inner" d="M127.513 50.8564C131.438 50.8564 134.619 48.0411 134.619 44.5683C134.619 41.0955 131.438 38.2803 127.513 38.2803C123.589 38.2803 120.407 41.0955 120.407 44.5683C120.407 48.0411 123.589 50.8564 127.513 50.8564Z" fill="#F8FBFF"/>
</g>
<path id="Vector" d="M18.4778 74.1578C18.6146 74.1584 18.7231 74.2089 18.8035 74.3095C18.8838 74.4101 18.9236 74.5453 18.9229 74.7151L18.9139 76.9875C18.9132 77.1573 18.8757 77.2923 18.8013 77.3922C18.7292 77.4894 18.6281 77.5377 18.498 77.5372C18.368 77.5367 18.2639 77.4875 18.1858 77.3898C18.1055 77.2892 18.0657 77.154 18.0664 76.9841L18.0738 75.1086L17.788 75.1075C17.4831 75.1063 17.2648 75.0204 17.1332 74.8501C16.9993 74.6797 16.9331 74.4093 16.9346 74.0389L16.9348 73.9804C16.6979 74.3582 16.3997 74.6536 16.0401 74.8666C15.6805 75.0768 15.2832 75.181 14.8483 75.1793C14.299 75.1771 13.8097 75.022 13.3804 74.714C12.9512 74.4032 12.6177 73.973 12.38 73.4235C12.1422 72.8739 12.0248 72.2483 12.0276 71.5465L12.0422 67.854C12.0429 67.6953 12.0838 67.5659 12.1649 67.466C12.2437 67.3661 12.3482 67.3164 12.4782 67.3169C12.6083 67.3174 12.7146 67.3679 12.7971 67.4685C12.8819 67.5691 12.924 67.6988 12.9234 67.8575L12.9087 71.55C12.9067 72.0429 12.9924 72.486 13.1657 72.8794C13.3391 73.2727 13.58 73.5814 13.8885 73.8054C14.197 74.0294 14.5486 74.1422 14.9432 74.1438C15.5239 74.1461 16.0011 73.9544 16.3748 73.5688C16.7508 73.1805 16.94 72.6841 16.9424 72.0799L16.9591 67.8735C16.9598 67.7148 17.0006 67.5855 17.0817 67.4855C17.1606 67.3856 17.2651 67.3359 17.3951 67.3364C17.5251 67.3369 17.6314 67.3875 17.714 67.4881C17.7988 67.5887 17.8409 67.7183 17.8403 67.877L17.8153 74.1552L18.4778 74.1578ZM22.3022 67.2849C22.8739 67.2872 23.3878 67.4605 23.8438 67.8048C24.2998 68.1464 24.6556 68.6184 24.911 69.2209C25.1687 69.8235 25.2961 70.5035 25.293 71.2609C25.2901 71.9989 25.1518 72.668 24.8781 73.2685C24.6067 73.8689 24.2337 74.3408 23.7593 74.6843C23.2848 75.0277 22.7505 75.1982 22.1564 75.1958C21.3178 75.1925 20.6252 74.8723 20.0784 74.2352C20.0025 74.1513 19.9648 74.0468 19.9653 73.9215C19.9659 73.7794 20.0202 73.6529 20.1282 73.542C20.2048 73.4643 20.2879 73.4257 20.3776 73.426C20.4852 73.4264 20.5881 73.4798 20.6863 73.586C21.0592 73.994 21.5505 74.1993 22.1603 74.2017C22.7702 74.2041 23.2834 73.9653 23.7001 73.4852C24.1169 73.0023 24.3581 72.3822 24.4239 71.625L21.804 71.6146C21.683 71.6142 21.5856 71.5734 21.5119 71.4923C21.4405 71.4113 21.405 71.3053 21.4056 71.1744C21.4061 71.0408 21.4424 70.9337 21.5145 70.8532C21.5888 70.7728 21.6865 70.7328 21.8075 70.7333L24.414 70.7436C24.3339 70.0054 24.1042 69.4113 23.7249 68.9614C23.3455 68.5088 22.87 68.2813 22.2982 68.2791C21.9552 68.2777 21.6477 68.3544 21.3758 68.5093C21.1039 68.6642 20.853 68.8985 20.623 69.2123C20.5238 69.3539 20.4137 69.4245 20.2926 69.424C20.2164 69.4237 20.1436 69.3941 20.0743 69.3354C19.9447 69.2207 19.8803 69.0882 19.8809 68.9378C19.8813 68.8236 19.9131 68.7249 19.9762 68.6416C20.574 67.7334 21.3493 67.2811 22.3022 67.2849ZM29.1159 67.312C29.6876 67.3143 30.2015 67.4876 30.6575 67.8319C31.1135 68.1735 31.4704 68.6455 31.7281 69.2481C31.9835 69.8506 32.1097 70.5306 32.1067 71.288C32.1038 72.026 31.9666 72.6951 31.6952 73.2956C31.4215 73.896 31.0474 74.3679 30.573 74.7113C30.0985 75.0548 29.5642 75.2253 28.9701 75.2229C28.1315 75.2196 27.4389 74.8994 26.8921 74.2623C26.8162 74.1784 26.7785 74.0739 26.779 73.9485C26.7795 73.8065 26.8338 73.68 26.9419 73.5691C27.0185 73.4914 27.1027 73.4528 27.1946 73.4531C27.3 73.4535 27.4018 73.5069 27.5 73.6131C27.8728 74.0211 28.3642 74.2264 28.974 74.2288C29.5839 74.2312 30.0971 73.9924 30.5138 73.5123C30.9328 73.0294 31.174 72.4093 31.2376 71.6521L28.6177 71.6417C28.4966 71.6412 28.4004 71.6005 28.329 71.5194C28.2553 71.4384 28.2187 71.3324 28.2192 71.2015C28.2198 71.0679 28.2572 70.9608 28.3315 70.8803C28.4036 70.7999 28.5001 70.7599 28.6212 70.7604L31.2276 70.7707C31.1476 70.0324 30.9179 69.4384 30.5385 68.9885C30.1592 68.5359 29.6836 68.3084 29.1119 68.3061C28.7689 68.3048 28.4614 68.3815 28.1895 68.5364C27.9198 68.6913 27.67 68.9256 27.4401 69.2394C27.3386 69.381 27.2273 69.4515 27.1063 69.4511C27.03 69.4508 26.9573 69.4212 26.888 69.3625C26.7607 69.2478 26.6973 69.1153 26.6979 68.9649C26.6983 68.8507 26.729 68.752 26.7899 68.6687C27.3876 67.7604 28.163 67.3082 29.1159 67.312ZM37.284 75.185C37.1539 75.1845 37.0487 75.1339 36.9684 75.0333C36.8903 74.9356 36.8516 74.8059 36.8523 74.6444L36.8637 71.7748L35.8346 71.7707L33.9114 75.017C33.8437 75.1281 33.7448 75.1834 33.6147 75.1829C33.5004 75.1825 33.4008 75.1306 33.316 75.0272C33.2336 74.9043 33.1926 74.79 33.193 74.6842C33.1934 74.5811 33.2286 74.4629 33.2986 74.3295L35.127 71.2415L33.5281 68.2235C33.468 68.1007 33.4382 67.9822 33.4387 67.868C33.4392 67.726 33.4846 67.6079 33.5746 67.5135C33.6445 67.4303 33.7332 67.3888 33.8408 67.3893C33.9686 67.3898 34.067 67.4514 34.136 67.5742L35.8283 70.8057L36.8675 70.8099L36.8788 67.9694C36.8794 67.8079 36.9192 67.6758 36.9981 67.5731C37.0792 67.4676 37.1848 67.4151 37.3148 67.4156C37.4449 67.4161 37.5512 67.4695 37.6337 67.5756C37.7185 67.679 37.7606 67.8114 37.7599 67.9729L37.7486 70.8134L38.7643 70.8174L40.4923 67.5995C40.5623 67.4773 40.6623 67.4164 40.7924 67.4169C40.8977 67.4173 40.985 67.4594 41.0542 67.5433C41.1457 67.6383 41.1912 67.7568 41.1907 67.8989C41.1902 68.013 41.1595 68.1313 41.0984 68.2536L39.4722 71.2588L41.2793 74.3613C41.3461 74.4757 41.3793 74.5942 41.3788 74.7167C41.3783 74.8504 41.3363 74.9644 41.253 75.0587C41.1831 75.1615 41.0842 75.2126 40.9564 75.2121C40.8331 75.2116 40.7381 75.1555 40.6712 75.0439L38.7739 71.7824L37.7448 71.7783L37.7334 74.6479C37.7328 74.8094 37.6896 74.9387 37.6041 75.0359C37.5207 75.1358 37.414 75.1855 37.284 75.185ZM49.0774 67.8759C49.6491 67.8782 50.1574 68.0362 50.6024 68.3498C51.0473 68.6635 51.3942 69.1021 51.6431 69.6656C51.8942 70.2319 52.0183 70.8701 52.0155 71.5802C52.0127 72.2986 51.8801 72.9414 51.6177 73.5084C51.3554 74.0755 50.9938 74.5168 50.5329 74.8325C50.0698 75.1481 49.5445 75.3047 48.9571 75.3024C48.3629 75.3 47.8344 75.1295 47.3717 74.7907C46.9066 74.4546 46.5419 73.9853 46.2775 73.3828C46.0131 72.7802 45.8824 72.1002 45.8854 71.3428L45.89 70.1774C45.9042 68.8797 46.1867 67.7405 46.7377 66.7597C47.2909 65.7761 48.1179 65.0219 49.2186 64.4972L50.9035 63.6768C50.9708 63.6492 51.0314 63.6355 51.0852 63.6357C51.2444 63.6364 51.3584 63.7413 51.427 63.9504C51.4491 64.0368 51.46 64.112 51.4598 64.1761C51.459 64.3766 51.3597 64.5238 51.1621 64.6177L49.3726 65.517C48.4876 65.9396 47.8227 66.5203 47.3781 67.2593C46.9335 67.9955 46.6745 68.841 46.6012 69.7959C46.8098 69.2008 47.1323 68.7315 47.5687 68.3879C48.0027 68.0443 48.5057 67.8736 49.0774 67.8759ZM48.961 74.3083C49.3803 74.3099 49.7563 74.1958 50.089 73.966C50.4218 73.7334 50.682 73.41 50.8698 72.9959C51.0598 72.5789 51.1558 72.1059 51.1579 71.5768C51.16 71.056 51.0677 70.5892 50.881 70.1763C50.6965 69.7635 50.4388 69.4436 50.1079 69.2167C49.777 68.987 49.4019 68.8714 48.9826 68.8697C48.5566 68.868 48.1739 68.9807 47.8344 69.2077C47.4928 69.4319 47.228 69.7497 47.0403 70.1611C46.8526 70.5725 46.7577 71.0385 46.7556 71.5593C46.7535 72.0884 46.8447 72.5621 47.0291 72.9806C47.2135 73.3963 47.4757 73.7217 47.8156 73.957C48.1532 74.1895 48.535 74.3066 48.961 74.3083ZM58.9935 67.5018C59.1235 67.5023 59.2298 67.5529 59.3124 67.6534C59.3972 67.754 59.4393 67.8837 59.4386 68.0424L59.4121 74.7174C59.4115 74.8789 59.3683 75.0124 59.2827 75.1179C59.1994 75.2206 59.0927 75.2717 58.9626 75.2712C58.8326 75.2706 58.7285 75.2187 58.6505 75.1154C58.5702 75.0092 58.5303 74.8754 58.531 74.7139L58.5329 74.2335C58.2804 74.5834 57.9744 74.8565 57.6148 75.0528C57.2553 75.2491 56.8659 75.3464 56.4467 75.3447C55.9063 75.3426 55.4215 75.1986 54.9921 74.9129C54.5628 74.6271 54.227 74.2122 53.9848 73.6682C53.7425 73.1215 53.6229 72.4694 53.626 71.7119L53.6406 68.0194C53.6412 67.869 53.6832 67.7425 53.7666 67.6398C53.8522 67.5343 53.9555 67.4818 54.0766 67.4823C54.2067 67.4828 54.3129 67.5361 54.3955 67.6423C54.4803 67.7456 54.5224 67.8725 54.5218 68.0229L54.5071 71.7154C54.5037 72.5592 54.6895 73.2018 55.0644 73.6433C55.4394 74.0848 55.9317 74.3067 56.5416 74.3092C56.916 74.3106 57.2549 74.2229 57.5583 74.0459C57.8595 73.866 58.0981 73.6178 58.2743 73.301C58.4504 72.9842 58.5393 72.6323 58.5408 72.2452L58.5575 68.0389C58.5581 67.8802 58.599 67.7509 58.6801 67.6509C58.759 67.551 58.8635 67.5013 58.9935 67.5018ZM65.7063 67.5285C65.8363 67.529 65.9415 67.5823 66.0218 67.6885C66.0998 67.7918 66.1386 67.9243 66.1379 68.0858L66.1114 74.744C66.1108 74.9055 66.071 75.0391 65.9921 75.1446C65.911 75.2473 65.8054 75.2984 65.6754 75.2979C65.5453 75.2973 65.4391 75.2454 65.3565 75.142C65.274 75.0359 65.233 74.9021 65.2337 74.7405L65.2443 72.0714C65.0437 72.3268 64.7963 72.5277 64.502 72.6741C64.2077 72.8178 63.8823 72.8889 63.5258 72.8875C62.7097 72.8842 62.0798 72.5726 61.6361 71.9526C61.1924 71.3298 60.9726 70.4838 60.9769 69.4145L60.9823 68.0653C60.9829 67.9038 61.0249 67.7716 61.1083 67.6689C61.1939 67.5635 61.3017 67.511 61.4318 67.5115C61.5596 67.512 61.6636 67.5653 61.7439 67.6715C61.8242 67.7748 61.864 67.9073 61.8634 68.0688L61.858 69.418C61.855 70.1838 62.0006 70.7803 62.2948 71.2075C62.5913 71.6348 63.0333 71.8496 63.6207 71.8519C64.0938 71.8538 64.4832 71.7495 64.789 71.5391C65.0948 71.3259 65.2483 71.0536 65.2496 70.7222L65.2601 68.0823C65.2608 67.9208 65.3028 67.7887 65.3862 67.686C65.4695 67.5805 65.5762 67.528 65.7063 67.5285ZM70.0774 75.3864C69.6268 75.3846 69.2235 75.298 68.8677 75.1268C68.5097 74.9555 68.227 74.7107 68.0198 74.3924C67.8103 74.0741 67.7063 73.7061 67.708 73.2884C67.7102 72.7314 67.8982 72.2616 68.2719 71.8787C68.6479 71.4959 69.2477 71.1976 70.0714 70.9836C70.5675 70.8436 70.9168 70.6654 71.1195 70.449C71.3221 70.2325 71.4241 69.9489 71.4255 69.598C71.4269 69.2555 71.3125 68.9808 71.0824 68.7738C70.8501 68.564 70.5355 68.4583 70.1386 68.4567C69.818 68.4555 69.5229 68.5225 69.2533 68.6579C68.9815 68.7933 68.7576 68.9887 68.5817 69.2442C68.4578 69.3969 68.3274 69.4729 68.1907 69.4724C68.1144 69.4721 68.0573 69.4524 68.0194 69.4132C67.8673 69.3096 67.7917 69.1673 67.7924 68.9863C67.7928 68.8916 67.8234 68.797 67.8843 68.7026C68.1145 68.3248 68.4229 68.0252 68.8094 67.804C69.1959 67.5827 69.6369 67.4731 70.1324 67.4751C70.7804 67.4777 71.302 67.6663 71.6974 68.041C72.0905 68.4185 72.2857 68.9526 72.283 69.6432C72.2809 70.1556 72.12 70.6005 71.8001 70.978C71.478 71.3554 70.9768 71.6375 70.2967 71.8241C69.6638 71.9915 69.2213 72.1888 68.9693 72.4162C68.7173 72.6408 68.5906 72.9285 68.5892 73.2793C68.5877 73.6469 68.7066 73.9245 68.9457 74.112C69.1849 74.2968 69.5556 74.3901 70.0578 74.3921C70.8807 74.3954 71.4725 74.1416 71.8333 73.6306C71.9325 73.489 72.0471 73.4184 72.1771 73.4189C72.2623 73.4193 72.3463 73.4586 72.4289 73.5369C72.5361 73.6487 72.5894 73.7756 72.5888 73.9176C72.5883 74.0513 72.5497 74.1653 72.4731 74.2597C72.2184 74.6096 71.8697 74.8853 71.4272 75.0868C70.9848 75.2883 70.5348 75.3882 70.0774 75.3864ZM79.3471 67.5827C79.4771 67.5832 79.5834 67.6338 79.666 67.7344C79.7508 67.835 79.7929 67.9646 79.7922 68.1233L79.7657 74.7983C79.7651 74.9598 79.7219 75.0933 79.6363 75.1988C79.5529 75.3015 79.4462 75.3526 79.3162 75.3521C79.1861 75.3516 79.0821 75.2996 79.004 75.1963C78.9237 75.0902 78.8839 74.9563 78.8846 74.7948L78.8865 74.3144C78.634 74.6643 78.3279 74.9374 77.9684 75.1337C77.6089 75.33 77.2195 75.4273 76.8002 75.4256C76.2599 75.4235 75.7751 75.2795 75.3457 74.9938C74.9164 74.708 74.5806 74.2932 74.3383 73.7492C74.0961 73.2024 73.9765 72.5503 73.9795 71.7928L73.9942 68.1003C73.9948 67.9499 74.0368 67.8234 74.1202 67.7207C74.2058 67.6152 74.3091 67.5627 74.4302 67.5632C74.5602 67.5637 74.6665 67.617 74.7491 67.7232C74.8339 67.8266 74.876 67.9534 74.8754 68.1038L74.8607 71.7963C74.8573 72.6401 75.0431 73.2827 75.418 73.7242C75.7929 74.1657 76.2853 74.3876 76.8952 74.3901C77.2696 74.3916 77.6085 74.3038 77.9119 74.1268C78.213 73.947 78.4517 73.6987 78.6278 73.3819C78.804 73.0652 78.8928 72.7132 78.8944 72.3262L78.9111 68.1198C78.9117 67.9611 78.9526 67.8318 79.0337 67.7319C79.1126 67.6319 79.217 67.5822 79.3471 67.5827ZM87.089 67.6135C87.219 67.614 87.3253 67.6646 87.4079 67.7652C87.4927 67.8657 87.5348 67.9954 87.5341 68.1541L87.5076 74.8291C87.5069 74.9906 87.4638 75.1241 87.3782 75.2296C87.2948 75.3323 87.1881 75.3834 87.0581 75.3829C86.928 75.3824 86.824 75.3304 86.7459 75.2271C86.6656 75.1209 86.6258 74.9871 86.6265 74.8256L86.6284 74.3452C86.3759 74.6951 86.0698 74.9682 85.7103 75.1645C85.3508 75.3608 84.9614 75.4581 84.5421 75.4564C84.0018 75.4543 83.517 75.3103 83.0876 75.0246C82.6583 74.7388 82.3225 74.3239 82.0802 73.7799C81.838 73.2332 81.7184 72.5811 81.7214 71.8236L81.7361 68.1311C81.7367 67.9807 81.7787 67.8542 81.8621 67.7515C81.9477 67.646 82.051 67.5935 82.1721 67.594C82.3021 67.5945 82.4084 67.6478 82.491 67.754C82.5758 67.8573 82.6178 67.9842 82.6173 68.1346L82.6026 71.8271C82.5992 72.6709 82.785 73.3135 83.1599 73.755C83.5348 74.1965 84.0272 74.4184 84.6371 74.4209C85.0115 74.4223 85.3493 74.3346 85.6504 74.1575C85.9538 73.9777 86.1936 73.7295 86.3697 73.4127C86.5459 73.0959 86.6347 72.744 86.6363 72.3569L86.653 68.1506C86.6536 67.9919 86.6945 67.8626 86.7756 67.7626C86.8545 67.6627 86.9589 67.613 87.089 67.6135ZM84.7052 66.5973C84.3375 66.5959 84.0037 66.5166 83.7039 66.3594C83.4041 66.2023 83.1684 65.9855 82.9968 65.7092C82.8275 65.4328 82.7436 65.1248 82.7449 64.785C82.7456 64.6235 82.7842 64.4928 82.8608 64.3928C82.9374 64.2957 83.0363 64.2473 83.1574 64.2478C83.2807 64.2483 83.3802 64.3016 83.456 64.4077C83.5319 64.5111 83.5694 64.6518 83.5687 64.8301C83.5677 65.0863 83.6745 65.2969 83.8891 65.4621C84.1059 65.63 84.3791 65.7147 84.7087 65.716C85.036 65.7173 85.3088 65.6348 85.5269 65.4686C85.745 65.3052 85.8546 65.0954 85.8556 64.8392C85.8563 64.6609 85.895 64.5205 85.9717 64.4177C86.0483 64.3122 86.1472 64.2597 86.2682 64.2602C86.3893 64.2607 86.4878 64.3098 86.5636 64.4075C86.6394 64.5081 86.677 64.6391 86.6764 64.8006C86.675 65.1404 86.5886 65.4478 86.4171 65.7228C86.2434 65.9978 86.006 66.2126 85.7049 66.3674C85.4039 66.5221 85.0706 66.5988 84.7052 66.5973ZM94.9452 67.6447C95.0753 67.6453 95.1782 67.6986 95.254 67.8047C95.3298 67.908 95.3674 68.0405 95.3668 68.202L95.3403 74.8602C95.3396 75.0218 95.301 75.1553 95.2243 75.2608C95.1477 75.3635 95.0444 75.4146 94.9143 75.4141C94.7843 75.4136 94.678 75.3616 94.5954 75.2583C94.5129 75.1521 94.472 75.0183 94.4726 74.8568L94.484 71.9913L90.4449 71.9753L90.4335 74.8407C90.4329 75.0022 90.392 75.1357 90.3108 75.2412C90.2319 75.344 90.1275 75.3951 89.9974 75.3946C89.8674 75.394 89.7622 75.3421 89.6819 75.2387C89.6039 75.1326 89.5652 74.9988 89.5658 74.8373L89.5923 68.179C89.5929 68.0175 89.6327 67.8854 89.7116 67.7827C89.7927 67.6772 89.8983 67.6247 90.0283 67.6252C90.1584 67.6257 90.2624 67.679 90.3405 67.7852C90.4208 67.8885 90.4606 68.021 90.46 68.1825L90.4488 70.9936L94.4879 71.0097L94.4991 68.1985C94.4997 68.037 94.5417 67.9049 94.6251 67.8022C94.7085 67.6967 94.8152 67.6442 94.9452 67.6447ZM107.362 67.6106C107.813 67.6124 108.211 67.7462 108.558 68.0121C108.902 68.2781 109.171 68.6551 109.364 69.1432C109.557 69.6313 109.652 70.1984 109.65 70.8444L109.633 74.9338C109.633 75.0953 109.592 75.2246 109.511 75.3218C109.43 75.4217 109.325 75.4714 109.197 75.4709C109.067 75.4704 108.96 75.4198 108.875 75.3192C108.793 75.2214 108.752 75.0918 108.752 74.9303L108.769 70.8409C108.771 70.167 108.634 69.6332 108.358 69.2394C108.081 68.8457 107.718 68.6479 107.267 68.6461C106.787 68.6442 106.398 68.8418 106.098 69.2388C105.8 69.6358 105.654 70.156 105.658 70.7993L105.658 70.8285L105.641 74.9179C105.641 75.0794 105.6 75.2087 105.519 75.3059C105.44 75.4058 105.336 75.4555 105.205 75.455C105.075 75.4545 104.968 75.4039 104.883 75.3034C104.801 75.2056 104.76 75.0759 104.76 74.9144L104.777 70.825C104.779 70.1511 104.642 69.6173 104.366 69.2236C104.089 68.8298 103.727 68.632 103.279 68.6303C102.806 68.6284 102.416 68.8218 102.109 69.2104C101.803 69.5963 101.648 70.0913 101.646 70.6956L101.629 74.9019C101.629 75.0635 101.588 75.1928 101.507 75.2899C101.426 75.3899 101.321 75.4396 101.193 75.4391C101.063 75.4386 100.956 75.388 100.871 75.2874C100.788 75.1896 100.747 75.06 100.748 74.8984L100.775 68.2235C100.775 68.062 100.817 67.9299 100.901 67.8272C100.986 67.7217 101.094 67.6692 101.224 67.6697C101.352 67.6702 101.456 67.7235 101.536 67.8297C101.617 67.933 101.656 68.0655 101.656 68.227L101.655 68.5403C101.869 68.2376 102.123 68.0033 102.417 67.8374C102.712 67.6742 103.03 67.5933 103.374 67.5947C103.793 67.5964 104.169 67.7162 104.502 67.9543C104.837 68.1923 105.103 68.5247 105.299 68.9516C105.522 68.5264 105.812 68.1962 106.167 67.9609C106.522 67.7256 106.92 67.6088 107.362 67.6106ZM116.361 67.7591C116.522 67.8545 116.603 68.001 116.602 68.1987C116.602 68.2655 116.582 68.3559 116.544 68.47L113.653 76.6123C113.399 77.3214 113.08 77.8757 112.697 78.2751C112.315 78.6774 111.901 78.8777 111.457 78.8759C111.168 78.8747 110.86 78.7593 110.534 78.5297C110.458 78.4737 110.398 78.4024 110.353 78.3159C110.306 78.2294 110.283 78.1444 110.284 78.0609C110.284 77.955 110.315 77.8507 110.376 77.7479C110.468 77.6146 110.576 77.5482 110.699 77.5487C110.798 77.5491 110.9 77.5885 111.005 77.6669C111.173 77.7901 111.352 77.8521 111.542 77.8528C111.802 77.8427 112.047 77.6961 112.277 77.413C112.507 77.1298 112.718 76.7199 112.911 76.1832L113.34 74.961L110.836 68.4347C110.808 68.3567 110.793 68.2703 110.794 68.1756C110.795 67.9779 110.878 67.8362 111.044 67.7505C111.107 67.7146 111.172 67.6967 111.24 67.697C111.401 67.6976 111.519 67.797 111.595 67.995L113.778 73.7263L115.789 68.0284C115.881 67.8087 116.009 67.6992 116.17 67.6999C116.208 67.7 116.272 67.7198 116.361 67.7591ZM120.77 75.5879C120.173 75.5855 119.639 75.4108 119.168 75.0636C118.698 74.7164 118.329 74.2415 118.06 73.6389C117.791 73.0364 117.658 72.3661 117.661 71.6282C117.664 70.8707 117.797 70.1918 118.059 69.5913C118.322 68.9908 118.682 68.5216 119.141 68.1837C119.6 67.843 120.115 67.6738 120.687 67.6761C121.64 67.6799 122.411 68.1382 123.002 69.0512C123.062 69.135 123.092 69.234 123.092 69.3481C123.091 69.4985 123.025 69.6305 122.895 69.7442C122.827 69.8024 122.756 69.8313 122.679 69.831C122.565 69.8306 122.454 69.7591 122.347 69.6167C122.12 69.3011 121.868 69.0648 121.593 68.9078C121.32 68.7507 121.017 68.6715 120.683 68.6702C120.264 68.6686 119.889 68.7924 119.558 69.0417C119.23 69.291 118.975 69.6437 118.794 70.0996C118.613 70.5528 118.521 71.0635 118.519 71.6316C118.516 72.1885 118.61 72.6929 118.798 73.1448C118.987 73.5939 119.253 73.9472 119.595 74.2048C119.937 74.4623 120.33 74.592 120.774 74.5938C121.383 74.5962 121.875 74.3949 122.249 73.9898C122.348 73.8843 122.452 73.8318 122.559 73.8323C122.651 73.8326 122.735 73.872 122.811 73.9502C122.916 74.062 122.968 74.189 122.967 74.331C122.967 74.4563 122.928 74.5606 122.852 74.6438C122.302 75.2765 121.608 75.5912 120.77 75.5879ZM130.045 74.8562C130.074 74.951 130.088 75.0221 130.088 75.0694C130.087 75.2504 130.002 75.3977 129.834 75.5112C129.773 75.5471 129.705 75.565 129.628 75.5647C129.469 75.564 129.347 75.4647 129.263 75.2666L127.171 69.4228L124.999 75.2371C124.969 75.3317 124.919 75.4067 124.85 75.4621C124.78 75.5175 124.704 75.5451 124.621 75.5447C124.56 75.5445 124.492 75.5206 124.416 75.4729C124.241 75.3608 124.155 75.2143 124.155 75.0333C124.155 74.9859 124.17 74.915 124.2 74.8204L126.742 68.1429C126.835 67.8955 126.973 67.7721 127.157 67.7728C127.354 67.7736 127.499 67.8981 127.59 68.1463L130.045 74.8562ZM134.395 67.7306C134.989 67.7329 135.528 67.9077 136.01 68.255C136.493 68.6022 136.873 69.0799 137.148 69.6881C137.424 70.2962 137.56 70.9693 137.557 71.7073L137.544 75.0447C137.543 75.1951 137.501 75.323 137.418 75.4285C137.332 75.5312 137.225 75.5823 137.095 75.5818C136.967 75.5813 136.86 75.5307 136.776 75.4302C136.693 75.3324 136.652 75.2027 136.653 75.0412L136.656 74.1891C136.388 74.6419 136.046 74.997 135.633 75.2544C135.222 75.5145 134.768 75.6436 134.273 75.6416C133.692 75.6393 133.168 75.4645 132.701 75.1174C132.233 74.7702 131.865 74.2953 131.597 73.6928C131.33 73.0902 131.198 72.4199 131.201 71.682C131.204 70.944 131.346 70.2721 131.626 69.6661C131.906 69.0602 132.289 68.5855 132.775 68.2421C133.261 67.8987 133.801 67.7282 134.395 67.7306ZM134.367 74.6478C134.802 74.6495 135.195 74.523 135.546 74.2682C135.897 74.0134 136.174 73.6622 136.378 73.2147C136.583 72.7644 136.687 72.2607 136.69 71.7038C136.692 71.1441 136.592 70.6396 136.39 70.1905C136.19 69.7386 135.915 69.3824 135.566 69.122C135.218 68.8589 134.826 68.7264 134.391 68.7247C133.956 68.723 133.561 68.8523 133.206 69.1127C132.85 69.3702 132.571 69.7242 132.367 70.1745C132.164 70.622 132.061 71.1257 132.059 71.6854C132.056 72.2423 132.155 72.7468 132.355 73.1987C132.555 73.6478 132.832 74.0012 133.185 74.2588C133.538 74.5164 133.932 74.6461 134.367 74.6478ZM143.891 74.7567C143.974 74.8907 144.015 75.0189 144.014 75.1415C144.014 75.2724 143.974 75.3836 143.895 75.4752C143.814 75.564 143.724 75.6082 143.626 75.6078C143.534 75.6074 143.458 75.589 143.397 75.5526C143.337 75.5133 143.28 75.4463 143.227 75.3514L141.362 72.374L139.406 75.4197C139.338 75.5336 139.235 75.5903 139.096 75.5898C138.975 75.5893 138.878 75.5416 138.807 75.4466C138.733 75.3516 138.697 75.2373 138.697 75.1036C138.698 74.9533 138.737 74.8267 138.813 74.724L140.806 71.6617L138.941 68.701C138.866 68.5977 138.828 68.4695 138.829 68.3163C138.829 68.1743 138.863 68.0561 138.931 67.9616C139.001 67.8672 139.101 67.8203 139.231 67.8208C139.361 67.8213 139.472 67.8789 139.563 67.9934L141.391 70.9414L143.222 68.0915C143.328 67.922 143.454 67.8376 143.599 67.8382C143.72 67.8387 143.818 67.8864 143.891 67.9814C143.963 68.0763 143.998 68.1906 143.998 68.3243C143.997 68.4663 143.954 68.6026 143.868 68.7332L141.96 71.6537L143.891 74.7567Z" fill="#32455F"/>
<g id="Orto name">
<path id="Vector_2" opacity="0.7" d="M120.012 22.4405C115.074 3.79762 123.716 10.3571 124.951 4.83333" stroke="#BBC6D4" stroke-width="2.4" stroke-linecap="round" stroke-dasharray="8 8"/>
<path id="Vector_3" opacity="0.7" d="M133.592 22.4405C131.741 3.10714 133.592 10.3571 136.679 6.21429" stroke="#BBC6D4" stroke-width="2.4" stroke-linecap="round" stroke-dasharray="8 8"/>
<path id="dot_left" d="M120.63 29C123.187 29 125.259 26.6815 125.259 23.8214C125.259 20.9614 123.187 18.6429 120.63 18.6429C118.073 18.6429 116 20.9614 116 23.8214C116 26.6815 118.073 29 120.63 29Z" fill="#263A56" fill-opacity="0.8"/>
<path id="dot_right" d="M134.21 29C136.767 29 138.84 26.6815 138.84 23.8214C138.84 20.9614 136.767 18.6429 134.21 18.6429C131.653 18.6429 129.58 20.9614 129.58 23.8214C129.58 26.6815 131.653 29 134.21 29Z" fill="#263A56" fill-opacity="0.8"/>
<path id="ghost_dot_left" opacity="0.55" d="M124.951 9.66667C127.337 9.66667 129.272 7.50271 129.272 4.83333C129.272 2.16396 127.337 0 124.951 0C122.564 0 120.63 2.16396 120.63 4.83333C120.63 7.50271 122.564 9.66667 124.951 9.66667Z" fill="#C6CFDB"/>
<path id="ghost_dot_right" opacity="0.55" d="M136.679 11.0476C139.065 11.0476 141 8.88366 141 6.21429C141 3.54491 139.065 1.38095 136.679 1.38095C134.293 1.38095 132.358 3.54491 132.358 6.21429C132.358 8.88366 134.293 11.0476 136.679 11.0476Z" fill="#C6CFDB"/>
</g>
</g>
<defs>
<linearGradient id="paint0_linear_0_85" x1="-83.3352" y1="20.1388" x2="-83.3352" y2="63.0119" gradientUnits="userSpaceOnUse">
<stop stop-color="#36527A"/>
<stop offset="1" stop-color="#2A4263"/>
</linearGradient>
<linearGradient id="paint1_linear_0_85" x1="-83.3344" y1="20.1408" x2="-83.3344" y2="63.0139" gradientUnits="userSpaceOnUse">
<stop stop-color="#36527A"/>
<stop offset="1" stop-color="#2A4263"/>
</linearGradient>
<linearGradient id="paint2_linear_0_85" x1="-83.3357" y1="20.1408" x2="-83.3357" y2="63.0139" gradientUnits="userSpaceOnUse">
<stop stop-color="#36527A"/>
<stop offset="1" stop-color="#2A4263"/>
</linearGradient>
<linearGradient id="paint3_linear_0_85" x1="-86.5815" y1="21.1163" x2="-86.5815" y2="61.2891" gradientUnits="userSpaceOnUse">
<stop stop-color="#36527A"/>
<stop offset="1" stop-color="#2A4263"/>
</linearGradient>
<linearGradient id="paint4_linear_0_85" x1="-65.0792" y1="20.9204" x2="-65.0792" y2="62.9192" gradientUnits="userSpaceOnUse">
<stop stop-color="#36527A"/>
<stop offset="1" stop-color="#2A4263"/>
</linearGradient>
<linearGradient id="paint5_linear_0_85" x1="-96.3464" y1="20.7001" x2="-96.3464" y2="63.5731" gradientUnits="userSpaceOnUse">
<stop stop-color="#36527A"/>
<stop offset="1" stop-color="#2A4263"/>
</linearGradient>
</defs>
</svg>
