<svg preserveAspectRatio="none" overflow="visible" style="display: block;" width="186.283" height="173.022" viewBox="0 0 186.283 173.022" fill="none" xmlns="http://www.w3.org/2000/svg">
<g id="Ellipse 11">
<path d="M186.283 86.0108C186.283 139.037 150.113 173.022 99.4808 173.022C48.8482 173.022 0 152.038 0 99.0124C6.12772 45.1922 39.0121 -4.47836e-09 99.4808 0C153.122 3.97274e-09 182.488 54.0068 186.283 86.0108Z" fill="url(#paint0_linear_0_177)"/>
<path d="M186.283 86.0108C186.283 139.037 150.113 173.022 99.4808 173.022C48.8482 173.022 0 152.038 0 99.0124C6.12772 45.1922 39.0121 -4.47836e-09 99.4808 0C153.122 3.97274e-09 182.488 54.0068 186.283 86.0108Z" fill="url(#paint1_linear_0_177)"/>
<path d="M186.283 86.0108C186.283 139.037 150.113 173.022 99.4808 173.022C48.8482 173.022 0 152.038 0 99.0124C6.12772 45.1922 39.0121 -4.47836e-09 99.4808 0C153.122 3.97274e-09 182.488 54.0068 186.283 86.0108Z" fill="url(#paint2_linear_0_177)" fill-opacity="0.2"/>
</g>
<defs>
<linearGradient id="paint0_linear_0_177" x1="98.1069" y1="-10.8814" x2="88.1234" y2="172.844" gradientUnits="userSpaceOnUse">
<stop stop-color="#FFE58B"/>
<stop offset="0.751286" stop-color="#FFC63A" stop-opacity="0.710607"/>
<stop offset="0.9375" stop-color="#FFD04E"/>
<stop offset="0.96518" stop-color="#FEB317" stop-opacity="0.2"/>
</linearGradient>
<linearGradient id="paint1_linear_0_177" x1="166.885" y1="41.3186" x2="43.2331" y2="156.237" gradientUnits="userSpaceOnUse">
<stop offset="0.25" stop-color="#FED575" stop-opacity="0.2"/>
<stop offset="0.600962" stop-color="#FDC130"/>
</linearGradient>
<linearGradient id="paint2_linear_0_177" x1="33.3003" y1="27.1153" x2="164.62" y2="148.091" gradientUnits="userSpaceOnUse">
<stop stop-color="#FDCE63" stop-opacity="0.38"/>
<stop offset="1" stop-color="#FEC133"/>
</linearGradient>
</defs>
</svg>
